<?xml version="1.0" encoding="utf-8"?>
<!-- Generator: Adobe Illustrator 25.0.1, SVG Export Plug-In . SVG Version: 6.00 Build 0)  -->
<svg version="1.1" id="Calque_1" xmlns="http://www.w3.org/2000/svg" xmlns:xlink="http://www.w3.org/1999/xlink" x="0px" y="0px"
	 viewBox="0 0 274.7 69.1" style="enable-background:new 0 0 274.7 69.1;" xml:space="preserve">
<style type="text/css">
	.st0{fill:#FFFFFF;}
</style>
<g id="Calque_2_1_">
	<g id="Calque_1-2">
		<g id="multivers">
			<path id="Tracé_1-2" class="st0" d="M55.9,20.2c-2.6-2.9-6.1-4.3-10.6-4.3c-2.6,0-5.1,0.6-7.4,1.9c-2,1.1-3.8,2.7-5,4.6
				c-0.9-1.9-2.3-3.6-4.2-4.6c-2.1-1.3-4.5-2-7-1.9c-4.4-0.1-8.6,2.1-11.1,5.7h-0.2V17H0v36.5h10.8V34c-0.1-2.4,0.6-4.7,2-6.6
				c1.3-1.6,3.3-2.5,5.3-2.4c1.8-0.1,3.6,0.8,4.7,2.2c1.2,1.6,1.8,3.6,1.8,5.7v20.6h10.7V34c0-2.9,0.7-5.2,2.1-6.7
				c1.3-1.5,3.2-2.3,5.2-2.3c1.9-0.1,3.7,0.7,4.8,2.2c1.1,1.7,1.7,3.7,1.6,5.7v2h10.8v-2.3C59.8,27.2,58.5,23.1,55.9,20.2z"/>
			<path id="Tracé_2-2" class="st0" d="M74.1,17v19.4c0,3-0.7,5.3-2,6.9c-1.4,1.6-3.5,2.5-5.6,2.4c-1.9,0.1-3.8-0.7-5-2.1
				c-0.9-1.1-1.4-2.4-1.6-3.8H49c0.1,5.1,1.5,8.9,4.1,11.3c2.6,2.5,6.1,3.8,9.7,3.8c4.5,0.1,8.7-2.1,11.2-5.8h0.2v4.6h10.6V17H74.1z
				"/>
			<path id="Tracé_3-2" class="st0" d="M90.8,5.3v48.2h10.8V5.3H90.8z"/>
			<path id="Tracé_4-2" class="st0" d="M123.6,45.3c-1.3,0.1-2.7-0.3-3.7-1.2c-0.7-0.8-1.1-2.2-1.1-4.3V25.7h9V17h-9V5.4H108V17
				h-4.6v8.7h4.6V41c0,4.2,1,7.5,3,9.7s5.3,3.4,9.8,3.4c2.5,0,5.1-0.3,7.5-1v-8.4C126.7,45.1,125.2,45.3,123.6,45.3z"/>
			<path id="Tracé_5-2" class="st0" d="M130.8,17v36.5h10.7V17H130.8z"/>
			<polygon class="st0" points="179.7,17 165.6,53.5 156.1,53.5 142,17 153.1,17 161,41.1 165.4,28.2 169.2,17 			"/>
			<path id="Tracé_7-2" class="st0" d="M216.6,35c0.1-5.1-1.7-10-5.2-13.7c-3.4-3.7-8.2-5.6-14.3-5.6c-6.1,0-10.8,1.8-14.3,5.5
				c-3.5,3.7-5.4,8.6-5.3,13.7c-0.2,5.4,1.9,10.6,5.8,14.3c3.9,3.7,9.1,5.7,14.5,5.5c4.7,0,8.6-1.1,11.6-3.2c3-2.1,5.2-5,6.6-8.3
				h-10.4c-1.7,2.5-4.6,4-7.7,3.8c-2.6,0-5.1-1-7-2.8c-1.9-1.7-2.9-4.1-2.9-6.6h28.3C216.6,36.8,216.7,35.9,216.6,35z M188.2,30.7
				c0.2-2.1,1.2-4,2.8-5.5c3.5-3,8.7-3,12.3,0c1.6,1.4,2.6,3.4,2.8,5.5L188.2,30.7z"/>
			<path id="Tracé_8-2" class="st0" d="M242.1,16c-2.3,0-4.6,0.6-6.5,1.9c-1.9,1.2-3.5,2.9-4.6,4.8h-0.2V17h-10.5v36.5H231V35.8
				c0-3.3,0.8-5.9,2.4-7.7c1.6-1.8,4-2.7,7.1-2.7c1.7,0,3.4,0.2,5.1,0.5v-9.6C244.5,16.1,243.3,16,242.1,16z"/>
			<path id="Tracé_9-2" class="st0" d="M263.7,31.4c-2.2-0.6-4.2-1.5-6.1-2.7c-0.9-0.6-1.5-1.6-1.5-2.7c0-0.9,0.4-1.7,1-2.2
				c0.8-0.7,1.8-1,2.9-1c1.1,0,2.2,0.4,3,1.1c0.8,0.8,1.3,1.9,1.4,3h9.5c-0.3-3.1-1.8-6-4.2-8c-2.4-2-5.6-3-9.7-3c-4.1,0-7.4,1-10,3
				c-2.5,1.9-3.9,4.8-3.8,7.9c0,5.3,3.6,9.1,10.9,11.4c2.1,0.6,4.1,1.5,5.9,2.7c1.1,0.7,1.7,1.9,1.7,3.2c0,1.1-0.4,2.1-1.2,2.8
				c-0.9,0.8-2,1.2-3.2,1.1c-3.3,0-5.1-1.7-5.3-5h-9.6c0,3.4,1.5,6.5,4,8.8c2.5,2.1,6,3.2,10.7,3.2c4.6,0,8.2-1.1,10.8-3.3
				c2.6-2.1,4-5.2,3.9-8.5C274.7,37.6,271,33.7,263.7,31.4z"/>
		</g>
		<rect id="Chapeau_noir" x="130.6" y="0" class="st0" width="11.3" height="9.8"/>
		<path class="st0" d="M4.2,66.7C3.9,67,3.4,67.2,3,67.2c-0.9,0-1.6-0.7-1.6-1.6c0,0,0-0.1,0-0.1v-3.7h-1v-1h0.9v-1.7h1.2v1.7H4v1
			H2.5v3.6c0,0.4,0.2,0.7,0.6,0.7c0,0,0,0,0,0c0.2,0,0.5-0.1,0.6-0.2L4.2,66.7z"/>
		<path class="st0" d="M28.1,65.4l0.7,0.8c-0.7,0.6-1.6,1-2.5,1c-1.8,0-3.2-1.4-3.2-3.2c0,0,0-0.1,0-0.1c-0.1-1.7,1.3-3.2,3-3.2
			c0,0,0.1,0,0.1,0c1.9,0,3,1.4,3,3.7h-4.9c0.1,1,1,1.8,2,1.8C27,66.1,27.6,65.9,28.1,65.4z M24.3,63.4h3.7c0-1-0.8-1.7-1.8-1.7
			C25.3,61.7,24.5,62.4,24.3,63.4z"/>
		<path class="st0" d="M48.3,63.9c0-1.8,1.5-3.2,3.3-3.2c0.9,0,1.7,0.4,2.3,1l-0.8,0.8c-0.4-0.4-0.9-0.7-1.5-0.7
			c-1.2,0.1-2.1,1.1-2.1,2.4c0.1,1.1,1,2,2.1,2.1c0.6,0,1.1-0.2,1.5-0.7l0.8,0.7c-0.6,0.6-1.5,1-2.3,1
			C49.8,67.2,48.3,65.7,48.3,63.9z"/>
		<path class="st0" d="M78.7,63.1V67h-1.2v-3.7c0.1-0.8-0.5-1.5-1.3-1.6c0,0-0.1,0-0.1,0c-0.9-0.1-1.6,0.6-1.7,1.5V67h-1.2v-8.4h1.2
			v3.1c0.4-0.7,1.2-1.1,2-1.1c1.3,0,2.3,1,2.3,2.2C78.7,62.9,78.7,63,78.7,63.1z"/>
		<path class="st0" d="M104,63.1V67h-1.2v-3.7c0.1-0.8-0.5-1.5-1.3-1.6c0,0-0.1,0-0.1,0c-0.8-0.1-1.6,0.5-1.8,1.3v4h-1.2v-6.2h1.2
			v0.9c0.4-0.7,1.2-1.1,2-1c1.3,0,2.3,0.9,2.4,2.2C104,62.9,104,63,104,63.1z"/>
		<path class="st0" d="M123.4,63.9c0-1.8,1.5-3.3,3.3-3.3c1.8,0,3.3,1.5,3.3,3.3c0,1.8-1.5,3.3-3.3,3.3
			C124.8,67.2,123.4,65.7,123.4,63.9z M128.7,63.9c-0.1-1.1-1.1-2-2.2-1.9c-1.1,0.1-2,1.1-1.9,2.2c0.1,1.1,1,1.9,2.1,1.9
			C127.8,66.1,128.7,65.1,128.7,63.9z"/>
		<path class="st0" d="M149.3,58.6h1.2V67h-1.2V58.6z"/>
		<path class="st0" d="M169.9,63.9c0-1.8,1.5-3.3,3.3-3.3c1.8,0,3.3,1.5,3.3,3.3c0,1.8-1.5,3.3-3.3,3.3
			C171.4,67.2,170,65.7,169.9,63.9z M175.3,63.9c-0.1-1.1-1.1-2-2.2-1.9c-1.1,0.1-2,1.1-1.9,2.2c0.1,1.1,1,1.9,2.1,1.9
			C174.4,66.1,175.3,65.1,175.3,63.9L175.3,63.9z"/>
		<path class="st0" d="M201.8,60.8v5.5c0,1.6-1.3,2.7-3.1,2.7c-0.9,0-1.8-0.3-2.6-0.8l0.5-0.9c0.5,0.5,1.2,0.7,1.9,0.7
			c1.3,0,2.1-0.6,2.1-1.7v-0.9c-0.5,0.7-1.3,1.2-2.2,1.1c-1.6-0.3-2.7-1.8-2.4-3.5c0.2-1.2,1.2-2.2,2.4-2.4c0.9,0,1.7,0.4,2.2,1.1
			v-1L201.8,60.8z M200.6,63.6c0-1-0.9-1.9-1.9-1.9c-1,0-1.9,0.9-1.9,1.9c0,1,0.9,1.9,1.9,1.9c1,0,1.9-0.7,1.9-1.8
			C200.6,63.7,200.6,63.7,200.6,63.6z"/>
		<path class="st0" d="M221.5,59c0-0.4,0.3-0.7,0.7-0.7c0.4,0,0.7,0.3,0.7,0.7c0,0.4-0.3,0.7-0.7,0.7
			C221.8,59.8,221.5,59.4,221.5,59z M221.6,60.8h1.2V67h-1.2V60.8z"/>
		<path class="st0" d="M247.2,65.4l0.8,0.8c-0.7,0.6-1.6,1-2.5,1c-1.8,0-3.2-1.4-3.2-3.2c0,0,0-0.1,0-0.1c-0.1-1.7,1.3-3.2,3-3.2
			c0,0,0.1,0,0.1,0c1.9,0,3,1.4,3,3.7h-4.9c0.1,1,1,1.8,2,1.8C246.1,66.1,246.7,65.9,247.2,65.4z M243.5,63.4h3.7
			c0-0.9-0.8-1.7-1.8-1.7C244.4,61.7,243.6,62.4,243.5,63.4z"/>
		<path class="st0" d="M267.4,66.2l0.6-0.8c0.6,0.5,1.3,0.7,2.1,0.8c0.7,0,1.2-0.3,1.2-0.8s-0.6-0.8-1.4-1c-1.4-0.4-2.1-0.8-2.1-1.8
			s0.9-1.9,2.3-1.9c0.8,0,1.6,0.3,2.3,0.7l-0.5,0.9c-0.5-0.3-1.1-0.5-1.8-0.6c-0.6,0-1.1,0.3-1.1,0.7s0.4,0.6,1.4,1s2.1,0.6,2.1,1.9
			s-1,1.9-2.4,1.9C269,67.1,268.1,66.8,267.4,66.2z"/>
	</g>
</g>
</svg>
